<svg width="1343" height="242" viewBox="0 0 1343 242" fill="none" xmlns="http://www.w3.org/2000/svg">
<g clip-path="url(#clip0_80_176)">
<path d="M337.061 25.751V121.769H323.778V25.751H337.061ZM386.967 121.769V25.751H443.8C452.624 25.751 460.214 28.597 465.243 33.626C469.323 37.706 471.6 43.114 471.6 49.756C471.6 56.396 470.367 57.631 468.468 60.856C466.571 63.703 464.389 65.885 461.542 67.782V68.446C466.002 70.344 469.797 73.475 472.264 76.986C475.395 81.445 477.293 86.758 477.293 92.736C477.293 98.713 473.782 107.917 468.468 112.66C462.776 118.068 454.616 121.2 446.077 121.2L387.062 121.863L386.967 121.769ZM454.616 40.647C451.77 38.085 447.975 36.567 442.661 36.567H400.345V64.651H445.223C449.303 64.651 452.814 62.754 454.996 60.191C457.178 57.631 458.506 54.214 458.506 50.704C458.506 47.194 457.273 43.114 454.711 40.552L454.616 40.647ZM460.594 81.35C457.083 77.27 452.055 75.373 446.741 75.373H400.63V110.763H446.077C451.77 110.763 456.799 108.865 459.93 105.355C463.06 102.223 464.673 98.049 464.673 93.02C464.389 88.277 463.06 84.481 460.594 81.35ZM520.272 25.751H601.396V36.851H533.461V65.316H594.752L591.623 76.322H533.555V110.098H603.673V121.2H520.272V25.751ZM695.892 25.751C706.996 25.751 716.104 29.261 722.462 35.524C727.869 41.216 730.712 48.806 730.712 58.579C730.712 68.352 727.583 74.709 721.89 80.686C718.133 84.7383 713.344 87.6906 708.036 89.226L728.248 121.484H713.448L695.133 91.123H658.228V121.484H644.945V25.751H696.084H695.892ZM712.309 43.398C708.514 39.318 703.102 36.757 695.611 36.757H658.321V80.022H695.232C701.87 80.022 707.563 77.84 711.358 74.044C715.153 70.249 717.05 65.221 717.05 58.294C717.336 52.602 715.818 47.194 712.309 43.494V43.398ZM781.191 37.421C789.727 28.882 803.961 24.138 819.427 24.138C834.893 24.138 848.176 28.598 856.712 36.472C865.82 45.012 870.946 57.631 870.946 73.76C870.946 89.89 866.865 99.662 859.561 108.201C851.019 117.973 836.219 123.381 819.427 123.381C802.63 123.381 789.727 118.638 781.191 110.098C772.65 101.56 767.909 89.225 767.909 73.475C767.909 57.725 772.936 45.96 781.191 37.516V37.421ZM847.796 44.347C841.438 38.37 830.719 35.144 819.334 35.144C807.949 35.144 796.938 38.275 790.866 44.632C784.513 50.989 781.098 60.762 781.098 73.665C781.098 86.568 783.941 94.823 789.634 101.464C795.612 108.391 807.283 112.186 819.334 112.186C831.379 112.186 842.67 108.391 849.028 101.464C854.435 94.824 857.57 85.714 857.57 73.664C857.57 61.615 854.055 50.894 847.796 44.252V44.347ZM1018.96 25.751H1114.02V36.851H1072.94V121.484H1059.66V37.137H1018.96V25.751ZM1181.96 25.751L1225.51 121.769H1211.27L1202.74 103.172H1144.29L1135.75 121.769H1122.47L1166.02 25.751H1181.96ZM1149.42 91.787H1197.71L1173.99 38.085H1173.04L1149.32 91.787H1149.42ZM1307.96 25.751C1319.06 25.751 1328.17 29.261 1334.52 35.524C1339.93 41.216 1342.78 48.806 1342.78 58.579C1342.78 68.352 1339.65 74.709 1333.96 80.686C1330.2 84.7363 1325.41 87.6882 1320.1 89.226L1340.31 121.484H1325.51L1307.2 91.123H1270.29V121.484H1257.01V25.751H1308.15H1307.96ZM1324.66 43.398C1320.86 39.318 1315.46 36.757 1307.96 36.757H1270.67V80.022H1307.67C1314.32 80.022 1320.01 77.84 1323.8 74.044C1327.6 70.249 1329.5 65.221 1329.5 58.294C1329.5 51.368 1327.89 47.194 1324.75 43.494L1324.66 43.398ZM915.727 32.678C923.603 26.7 935.939 24.138 951.686 24.138C967.438 24.138 975.693 26.036 988.024 30.78V41.88C975.693 37.421 963.736 35.239 952.065 35.239C940.4 35.239 930.626 36.852 925.214 40.268C921.705 42.45 919.808 45.296 919.808 49.471C919.808 53.645 921.04 55.828 923.889 57.346C927.018 59.908 932.144 61.141 938.403 62.089L961.173 65.885C973.796 68.067 982.997 70.629 988.976 76.037C993.436 80.497 995.614 85.809 995.614 93.684C995.614 101.56 991.819 110.098 984.229 115.127C975.693 120.535 964.022 123.381 946.659 123.381C929.295 123.381 921.04 120.82 908.423 116.455V105.07C920.473 109.15 935.56 111.996 946.279 111.996C956.999 111.996 968.389 110.763 975.314 106.303C979.774 103.457 982.238 99.377 982.238 93.4C982.238 82.394 972.085 80.117 959.848 78.22L934.894 74.424C926.072 73.191 919.142 70.629 914.401 67.118C909.655 63.323 906.811 57.915 906.811 50.704C906.811 43.494 909.941 36.852 915.633 32.677H915.727V32.678ZM323.873 240.178V193.782H348.826C353.285 193.782 356.701 195.015 359.263 197.577C361.16 199.474 362.394 202.321 362.394 205.452C362.394 208.583 361.729 209.247 360.781 210.86C359.832 212.093 358.883 213.422 357.271 214.371V214.655C359.452 215.604 361.066 217.217 362.299 218.735C363.912 220.917 364.861 223.479 364.861 226.325C364.861 229.172 363.248 233.631 360.401 236.098C357.555 238.66 353.76 240.178 349.68 240.178H323.778H323.873ZM354.139 201.088C352.906 199.854 351.008 199.19 348.446 199.19H330.42V212.758H349.68C351.578 212.758 353.191 211.809 354.424 210.575C355.474 209.217 356.042 207.548 356.037 205.831C356.037 203.934 355.373 202.036 354.139 201.088ZM356.986 220.632C355.373 218.735 352.906 217.786 350.06 217.786H330.135V234.864H349.68C352.526 234.864 354.709 233.915 356.322 232.303C357.934 230.69 358.504 228.792 358.504 226.325C358.789 224.143 358.219 221.866 356.891 220.632H356.986ZM383.173 193.782H419.796V199.19H389.815V213.042H416.95V218.45H389.815V234.864H421.124V240.272H383.268V193.877L383.173 193.782ZM466.572 193.782L487.73 240.178H480.803L476.724 230.974H447.691L443.611 240.178H437.254L458.412 193.782H466.666H466.572ZM450.157 225.661H474.162L462.777 199.759H461.543L450.157 225.661ZM507.939 198.526C512.683 194.731 519.04 192.833 526.535 192.833C534.033 192.833 538.207 194.066 542.662 196.343L540.484 201.088C536.403 199.475 531.659 198.526 526.63 198.526C521.602 198.526 515.624 200.139 512.113 203.269C508.318 206.401 506.136 211.524 506.136 217.122C506.136 222.72 507.749 226.61 510.88 229.741C514.39 233.536 520.084 235.718 526.345 235.718C532.608 235.718 536.117 234.77 540.198 233.157L542.382 237.901C537.921 240.083 532.228 241.411 526.251 241.411C520.273 241.411 511.07 238.85 506.326 234.485C501.866 230.405 499.685 224.712 499.685 217.407C499.685 210.101 502.815 202.606 507.939 198.431V198.526ZM601.111 193.782V240.178H594.753V218.071H566.004V240.178H559.646V193.782H566.004V212.758H594.753V193.782H601.111ZM657.376 193.782V199.19H627.962V213.706H654.147V219.114H627.962V239.988H621.604V193.592L657.277 193.877L657.376 193.782ZM697.41 193.782C702.822 193.782 707.184 195.395 710.319 198.526C712.876 201.372 714.394 204.883 714.394 209.532C714.394 214.181 712.783 217.407 709.939 220.253C708.322 222.151 705.858 223.764 703.295 224.333L713.069 239.798H706.144L697.317 225.282H680.905V239.798H674.547V193.402L697.317 193.687L697.41 193.782ZM705.385 202.321C703.488 200.423 700.925 199.19 697.509 199.19H681.092V220.063H697.509C700.639 220.063 703.488 219.114 705.385 217.217C707.283 215.319 708.229 212.758 708.229 209.627C707.943 206.78 706.997 204.219 705.385 202.321ZM736.977 199.475C741.058 195.395 747.13 192.833 754.627 192.833C762.118 192.833 767.53 195.015 771.704 198.811C776.165 202.89 778.629 208.963 778.629 216.837C778.629 224.712 776.731 229.457 773.222 233.536C769.141 238.28 762.783 240.842 754.907 240.842C747.037 240.842 741.625 238.66 737.544 234.485C733.468 230.405 731.191 224.333 731.191 216.837C731.191 209.342 732.803 203.554 736.884 199.475H736.977ZM766.958 202.89C763.828 200.044 759.654 198.431 754.341 198.431C749.028 198.431 744.567 200.044 741.718 203.175C738.589 206.306 736.977 211.05 736.977 217.027C736.977 223.005 738.209 227.464 741.058 230.595C743.902 234.105 748.648 235.624 754.341 235.624C760.033 235.624 764.774 233.726 767.623 230.216C770.186 227.084 771.704 222.625 771.704 216.933C771.985 210.576 770.087 205.547 766.958 202.7V202.89ZM839.256 193.782V240.178H832.903L802.917 202.89V240.178H796.564V193.782H802.917L832.903 230.69V193.782H839.256ZM855.953 193.782H900.833V199.19H881.572V240.272H875.214V199.19H855.953V193.782ZM971.233 193.782C976.64 193.782 981.007 195.395 984.23 198.526C986.793 201.372 988.311 204.883 988.311 209.532C988.311 214.181 986.699 217.407 983.85 220.253C982.239 222.151 979.775 223.764 977.212 224.333L986.985 239.798H980.055L971.233 225.282H954.821V239.798H948.557V193.402L971.327 193.687L971.233 193.782ZM979.203 202.321C977.305 200.423 974.742 199.19 971.327 199.19H954.915V220.063H971.327C974.462 220.063 977.305 219.114 979.203 217.217C981.1 215.319 982.052 212.758 982.052 209.627C981.766 206.78 980.814 204.219 979.203 202.321ZM1006.34 193.782H1042.96V199.19H1012.6V213.042H1039.74V218.45H1012.6V234.864H1044.2V240.272H1006.34V193.782ZM1064.78 196.913C1068.58 194.066 1074.56 192.833 1082.15 192.833C1089.74 192.833 1093.82 193.782 1099.8 195.964L1097.9 200.708C1092.87 199.095 1088.12 198.146 1082.43 198.146C1076.74 198.146 1071.99 198.811 1069.44 200.708C1067.82 201.657 1066.87 203.269 1066.87 205.168C1066.87 207.065 1067.54 208.298 1068.77 208.963C1070.38 210.196 1072.57 210.86 1075.69 211.145L1086.8 213.042C1092.77 213.991 1097.52 215.224 1100.08 217.786C1102.26 219.969 1103.21 222.531 1103.21 226.326C1103.21 230.121 1101.31 234.2 1097.52 236.762C1093.44 239.324 1087.75 240.842 1079.2 240.842C1070.67 240.842 1066.21 239.893 1060.23 237.711L1061.85 232.682C1067.25 234.58 1073.8 235.244 1078.92 235.244C1084.04 235.244 1089.64 234.58 1093.15 232.398C1095.34 231.164 1096.67 228.887 1096.67 226.041C1096.67 220.632 1091.92 219.684 1085.56 218.735L1073.51 216.837C1069.06 216.174 1065.92 214.94 1063.74 213.327C1061.56 211.429 1059.95 208.867 1059.95 205.452C1060.61 201.657 1061.85 198.811 1064.69 196.913H1064.78ZM1125.7 199.475C1129.78 195.395 1135.85 192.833 1143.34 192.833C1150.84 192.833 1156.25 195.015 1160.42 198.811C1164.88 202.89 1167.35 208.963 1167.35 216.837C1167.35 224.712 1165.45 229.457 1161.94 233.536C1157.86 238.28 1151.51 240.842 1143.63 240.842C1135.75 240.842 1130.35 238.66 1126.27 234.485C1122.19 230.405 1119.91 224.333 1119.91 216.837C1119.91 209.342 1121.52 203.554 1125.6 199.475H1125.7ZM1156.06 202.89C1152.93 200.044 1148.75 198.431 1143.44 198.431C1138.13 198.431 1133.66 200.044 1130.82 203.175C1127.69 206.306 1126.07 211.05 1126.07 217.027C1126.07 223.005 1127.31 227.464 1130.16 230.595C1133 234.105 1137.75 235.624 1143.44 235.624C1149.13 235.624 1153.88 233.726 1156.72 230.216C1159.28 227.084 1160.8 222.625 1160.8 216.933C1160.8 211.24 1159.19 205.547 1156.06 202.7V202.89ZM1208.43 193.782C1213.84 193.782 1218.21 195.395 1221.33 198.526C1223.9 201.372 1225.42 204.883 1225.42 209.532C1225.42 214.181 1223.8 217.407 1220.96 220.253C1219.34 222.151 1216.87 223.764 1214.32 224.333L1224.08 239.798H1217.16L1208.34 225.282H1191.92V239.798H1185.57V193.402L1208.34 193.687L1208.43 193.782ZM1216.31 202.321C1214.41 200.423 1211.85 199.19 1208.43 199.19H1192.02V220.063H1208.43C1211.56 220.063 1214.41 219.114 1216.31 217.217C1218.21 215.319 1219.15 212.758 1219.15 209.627C1218.87 206.78 1218.21 204.219 1216.31 202.321ZM1239.74 193.782H1284.62V199.19H1265.36V240.272H1259V199.19H1239.74V193.782ZM1304.16 196.913C1307.96 194.066 1313.94 192.833 1321.53 192.833C1329.12 192.833 1333.2 193.782 1339.17 195.964L1337.27 200.708C1332.25 199.095 1327.51 198.146 1321.81 198.146C1316.12 198.146 1311.37 198.811 1308.81 200.708C1307.2 201.657 1306.25 203.269 1306.25 205.168C1306.25 207.065 1306.91 208.298 1308.15 208.963C1309.76 210.196 1311.94 210.86 1315.08 211.145L1326.18 213.042C1332.15 213.991 1336.89 215.224 1339.46 217.786C1341.64 219.969 1342.59 222.531 1342.59 226.326C1342.59 230.121 1340.69 234.2 1336.89 236.762C1332.82 239.324 1327.13 240.842 1318.59 240.842C1310.04 240.842 1305.59 239.893 1299.61 237.711L1301.22 232.682C1306.63 234.58 1313.27 235.244 1318.3 235.244C1323.33 235.244 1329.02 234.58 1332.53 232.398C1334.72 231.164 1336.04 228.887 1336.04 226.041C1336.04 220.632 1331.3 219.684 1324.94 218.735L1312.99 216.837C1308.53 216.174 1305.4 214.94 1303.21 213.327C1301.03 211.429 1299.42 208.867 1299.42 205.452C1300.08 201.657 1301.32 198.811 1304.16 196.913Z" fill="#002855"/>
<path d="M50.3369 240.178H49.6729C48.4389 239.893 47.1109 238.944 47.1109 237.331C46.4469 179.265 78.4209 140.365 86.8659 130.877C51.4749 97.1001 3.18094 95.4871 2.89694 95.4871C1.28394 95.4871 0.334937 94.5381 0.0509371 92.9251C-0.234063 91.6921 0.714937 90.0791 1.94794 89.7951C57.2629 71.4831 103.944 89.5101 115.613 94.8231C136.771 50.6091 123.204 4.49813 123.204 3.83313C122.919 2.60013 123.488 0.988128 124.817 0.323128C126.05 -0.340872 127.663 0.0391277 128.612 1.27313C163.053 48.0481 160.207 98.2391 158.973 110.857C207.267 117.214 247.401 89.9841 247.685 89.9841C248.919 89.3201 250.532 89.3201 251.48 90.2691C252.429 91.2171 252.714 92.8311 251.765 94.0641C217.988 141.409 169.315 154.027 156.981 156.589C165.805 204.598 204.041 234.296 204.326 234.58C205.559 235.529 205.938 237.142 205.274 238.375C204.61 239.608 203.092 240.273 201.764 239.608C146.165 221.961 119.029 179.93 112.673 168.828C69.6929 192.169 53.2779 237.331 53.2779 237.995C52.3289 239.229 51.0959 239.893 50.1469 239.893L50.3369 240.178Z" fill="#38A596"/>
</g>
<defs>
<clipPath id="clip0_80_176">
<rect width="1343" height="242" fill="white"/>
</clipPath>
</defs>
</svg>
