<?xml version="1.0" encoding="UTF-8" standalone="no"?>
<svg
   xmlns:dc="http://purl.org/dc/elements/1.1/"
   xmlns:cc="http://creativecommons.org/ns#"
   xmlns:rdf="http://www.w3.org/1999/02/22-rdf-syntax-ns#"
   xmlns:svg="http://www.w3.org/2000/svg"
   xmlns="http://www.w3.org/2000/svg"
   xmlns:sodipodi="http://sodipodi.sourceforge.net/DTD/sodipodi-0.dtd"
   xmlns:inkscape="http://www.inkscape.org/namespaces/inkscape"
   x="0"
   y="0"
   width="100"
   height="110"
   viewBox="1024 82 33.333333 36.666666"
   version="1.1"
   id="svg2"
   inkscape:version="0.91 r13725"
   sodipodi:docname="RCI_Flag.svg">
  <title
     id="title4142">Royal Caribbean Cruises Ltd. logo</title>
  <metadata
     id="metadata13">
    <rdf:RDF>
      <cc:Work
         rdf:about="">
        <dc:format>image/svg+xml</dc:format>
        <dc:type
           rdf:resource="http://purl.org/dc/dcmitype/StillImage" />
        <dc:title>Royal Caribbean Cruises Ltd. logo</dc:title>
        <cc:license
           rdf:resource="http://scripts.sil.org/OFL" />
      </cc:Work>
      <cc:License
         rdf:about="http://scripts.sil.org/OFL">
        <cc:permits
           rdf:resource="http://scripts.sil.org/pub/OFL/Reproduction" />
        <cc:permits
           rdf:resource="http://scripts.sil.org/pub/OFL/Distribution" />
        <cc:permits
           rdf:resource="http://scripts.sil.org/pub/OFL/Embedding" />
        <cc:permits
           rdf:resource="http://scripts.sil.org/pub/OFL/DerivativeWorks" />
        <cc:requires
           rdf:resource="http://scripts.sil.org/pub/OFL/Notice" />
        <cc:requires
           rdf:resource="http://scripts.sil.org/pub/OFL/Attribution" />
        <cc:requires
           rdf:resource="http://scripts.sil.org/pub/OFL/ShareAlike" />
        <cc:requires
           rdf:resource="http://scripts.sil.org/pub/OFL/DerivativeRenaming" />
        <cc:requires
           rdf:resource="http://scripts.sil.org/pub/OFL/BundlingWhenSelling" />
      </cc:License>
    </rdf:RDF>
  </metadata>
  <sodipodi:namedview
     pagecolor="#ffffff"
     bordercolor="#666666"
     borderopacity="1"
     objecttolerance="10"
     gridtolerance="10"
     guidetolerance="10"
     inkscape:pageopacity="0"
     inkscape:pageshadow="2"
     inkscape:window-width="1366"
     inkscape:window-height="705"
     id="namedview11"
     showgrid="false"
     inkscape:showpageshadow="false"
     inkscape:zoom="1"
     inkscape:cx="22.9937"
     inkscape:cy="56.580326"
     inkscape:window-x="-8"
     inkscape:window-y="-8"
     inkscape:window-maximized="1"
     inkscape:current-layer="svg2" />
  <defs
     id="defs4">
    <style
       type="text/css"
       id="style6"><![CDATA[

.g1_1{
fill: #FFFFFF;
}
.g2_1{
fill: #061456;
}
]]></style>
  </defs>
  <path
     style="fill:#061456"
     d="m 1040.6519,82.430565 c -1.7288,1.675236 -3.6914,3.443405 -5.3266,5.165176 l 1.9158,2.513101 0,0.138973 -5.1867,2.280515 -3.4568,-2.373164 2.1017,-2.326838 0,-0.186262 c -2.196,-1.535634 -4.0646,-3.024096 -6.1671,-4.420125 l 1.0274,10.516615 30.2777,0 1.0282,-10.516615 c -2.1026,1.396029 -3.9719,2.884491 -6.1679,4.420125 l 0,0.186262 2.1025,2.326838 -3.5047,2.373164 -5.1388,-2.280515 0,-0.138973 1.9148,-2.513101 c -1.6353,-1.721771 -3.5968,-3.48994 -5.3256,-5.165176 l -0.093,0 z m -14.8585,13.169654 0.3278,3.489771 11.1668,0 0,12.0984 -5.4204,-0.0463 c -1.2149,0 -2.5229,-1.30297 -2.2426,-2.14057 0.2804,-1.20991 1.3554,-2.0008 2.3834,-2.60575 -0.1868,0 -3.9249,-2.74602 -5.7004,-3.95591 0.093,0.79109 1.3542,10.65684 1.3542,10.79648 l 12.9428,4.88626 0.1868,0 12.9428,-4.88626 c 0,-0.13964 1.262,-10.00539 1.3551,-10.79648 -1.7756,1.20989 -5.5134,3.95591 -5.7004,3.95591 1.028,0.60495 2.1021,1.39584 2.3825,2.60575 0.2803,0.8376 -1.0278,2.14057 -2.2426,2.14057 l -5.4195,0.0463 0,-12.0984 11.1668,0 0.3269,-3.489771 -29.81,0 z"
     id="crown"
     inkscape:connector-curvature="0" />
  <!--<path d="M1116.4,98.4c1,0,1.9,0.9,1.9,2c0,1.1,-0.9,2,-1.9,2c-1.1,0,-2,-0.9,-2,-2c0,-1.1,0.9,-2,2,-2l0,-0.2c-1.3,0,-2.3,1,-2.3,2.2c0,1.2,1,2.2,2.3,2.2c1.2,0,2.2,-1,2.2,-2.2c0,-1.2,-1,-2.2,-2.2,-2.2Z" class="g2_1" id="circle" />
<path d="M1115.8,99.4l0.8,0c0.3,0,0.6,0,0.6,0.4c0,0.5,-0.5,0.4,-0.9,0.4l-0.5,0l0,0.3l0.6,0l0.7,1.1l0.4,0l-0.8,-1.1c0.5,0,0.8,-0.2,0.8,-0.7c0,-0.2,-0.1,-0.4,-0.3,-0.5c-0.2,-0.1,-0.4,-0.2,-0.6,-0.2l-1.1,0l0,2.5l0.3,0Z" class="g2_1" id="R" />-->
</svg>
