<svg width="190" height="197" viewBox="0 0 190 197" fill="none" xmlns="http://www.w3.org/2000/svg">
<g clip-path="url(#clip0_22687_848)">
<g clip-path="url(#clip1_22687_848)">
<path d="M147.247 79.4093C144.516 120.807 40.0138 106.516 42.7534 106.516V61.3378H89.5617L75.746 74.3442L79.8009 78.3872L92.7548 64.612L92.1833 83.5066H97.9165L97.2996 64.5668L110.299 78.3963L114.354 74.3533L100.484 61.3921L119.479 62.0072V56.8516H74.6937C54.6006 56.8516 43.9417 46.613 43.9417 31.6529C43.9508 -9.33793 138.375 2.62829 138.375 2.62829V47.8069H100.438L114.308 34.8005L110.254 30.7575L97.2542 44.5869L97.8711 25.6472H92.138L92.7548 44.5869L79.7555 30.7575L75.7006 34.8005L89.5254 47.7617L70.5753 47.1466V52.3021H113.9H113.946C137.078 52.3021 148.244 64.4673 147.256 79.4093H147.247ZM11.9198 169.142C8.42731 168.971 5.82382 168.184 4.12748 166.791C3.3292 166.13 2.6307 165.416 2.02292 164.638C1.20649 163.553 0.634996 162.196 0.308427 160.577L0.208642 160.134C0.072571 159.474 0 158.958 0 158.578V157.954H5.06183C5.06183 158.768 5.1979 159.6 5.47911 160.468C5.95082 161.744 6.8761 162.757 8.25495 163.498C9.13488 163.978 10.3595 164.222 11.9198 164.222C14.1876 164.222 15.8386 163.634 16.8818 162.458C17.3354 162.024 17.6348 161.454 17.789 160.749C17.8434 160.487 17.8706 160.224 17.8706 159.944C17.8706 158.307 17.2084 157.004 15.8749 156.036C14.5596 155.014 12.7544 153.992 10.4502 152.952C8.79016 152.174 7.3206 151.397 6.03247 150.619C2.16806 148.285 0.163285 145.409 0.00907138 141.972V141.872C0.00907138 138.987 0.816424 136.771 2.42206 135.215C3.2022 134.492 4.09119 133.886 5.09811 133.388C6.10504 132.9 7.10289 132.547 8.10074 132.33C9.09859 132.113 10.0874 132.005 11.0762 132.005C14.5686 132.158 17.1812 132.945 18.8957 134.365C19.7121 135.007 20.4106 135.731 21.0002 136.536C22.3337 138.472 22.9959 140.669 22.9959 143.139H17.9341V142.904C17.9341 142.768 17.916 142.578 17.8797 142.334C17.8434 142.089 17.7436 141.655 17.5713 141.013C17.3626 140.29 17.0542 139.647 16.6369 139.087C16.2196 138.526 15.5302 138.028 14.5596 137.594C13.5889 137.16 12.4278 136.943 11.0762 136.943C8.84459 136.943 7.1936 137.522 6.14132 138.68C5.76032 139.059 5.47911 139.629 5.28861 140.389C5.1979 140.715 5.16161 141.049 5.16161 141.375C5.16161 141.845 5.2614 142.406 5.46097 143.066C5.66054 143.736 6.22297 144.387 7.16639 145.047C8.51802 146.096 10.3232 147.145 12.5911 148.177C14.2874 148.954 15.757 149.732 17.0088 150.51C20.8823 152.844 22.8871 155.702 23.005 159.103V159.546C23.005 161.581 22.5333 163.281 21.5899 164.647C20.6465 166.013 19.4218 167.044 17.916 167.749C15.9112 168.663 13.9155 169.124 11.947 169.124L11.9198 169.142ZM53.4304 169.142H48.5228L46.4999 162.259H33.7546L31.7317 169.142H26.8513L37.7097 132.014H42.5901L53.4486 169.142H53.4304ZM45.0666 157.312L40.1318 140.407L35.1697 157.312H45.0666ZM81.47 169.142H76.508L63.9169 142.424V169.142H59.0365V132.014H63.9169L76.508 158.759V132.014H81.47V169.142ZM125.793 169.142H120.912V163.218C117.139 167.171 112.603 169.142 107.305 169.142C103.441 169.142 99.9394 168.057 96.8007 165.877C93.662 163.706 91.3941 160.866 90.0062 157.357C89.1535 155.15 88.7362 152.871 88.7362 150.519C88.7362 147.155 89.5617 144.052 91.2036 141.212C92.8456 138.372 95.0953 136.129 97.9527 134.483C100.81 132.837 103.922 132.014 107.305 132.014C111.251 132.05 114.771 133.153 117.864 135.324C120.958 137.495 123.189 140.317 124.577 143.79H118.835C117.619 141.773 116.005 140.172 113.982 138.987C111.959 137.802 109.727 137.214 107.305 137.214C103.613 137.214 100.456 138.508 97.8257 141.095C95.195 143.681 93.8797 146.838 93.8797 150.546C93.8797 154.255 95.195 157.384 97.8257 159.98C100.456 162.576 103.613 163.878 107.305 163.878C109.836 163.878 112.159 163.227 114.281 161.925C116.404 160.622 118.028 158.877 119.153 156.679H109.256V151.785H125.793V169.133V169.142ZM144.77 169.142C141.686 169.142 139.046 168.048 136.851 165.85C134.656 163.661 133.549 161.029 133.549 157.954V132.014H138.456V157.9C138.456 159.645 139.064 161.129 140.271 162.35C141.486 163.58 142.974 164.195 144.734 164.213C146.521 164.195 148.018 163.571 149.224 162.332C150.44 161.102 151.057 159.618 151.093 157.891V132.005H155.973V157.945C155.973 161.02 154.876 163.652 152.689 165.841C150.503 168.03 147.854 169.133 144.761 169.133L144.77 169.142ZM177.835 169.197H165.19V132.068H170.07V164.276H177.835V169.197ZM181.282 127.898V124.769L189.955 122.001L190.009 126.144L181.282 127.907V127.898ZM188.086 169.142H183.206V132.014H188.086V169.142ZM3.27477 196.105C2.2497 195.508 1.45142 194.685 0.870852 193.636C0.290284 192.586 0 191.402 0 190.081C0 188.76 0.290284 187.576 0.870852 186.526C1.45142 185.477 2.2497 184.654 3.27477 184.057C4.29983 183.46 5.4519 183.162 6.74003 183.162C7.91931 183.162 8.98066 183.397 9.92409 183.858C10.8675 184.319 11.6114 184.971 12.1647 185.812C12.7181 186.644 13.0174 187.603 13.0719 188.679L10.7314 188.851C10.6407 187.793 10.2325 186.942 9.5068 186.318C8.78109 185.694 7.85581 185.378 6.74003 185.378C5.8964 185.378 5.15254 185.577 4.4994 185.957C3.84626 186.346 3.34734 186.897 2.99355 187.603C2.63977 188.317 2.45834 189.14 2.45834 190.072C2.45834 191.004 2.63977 191.827 2.99355 192.541C3.34734 193.256 3.85534 193.807 4.4994 194.187C5.15254 194.576 5.8964 194.766 6.74003 194.766C7.8286 194.766 8.72667 194.468 9.42516 193.871C10.1237 193.274 10.5319 192.469 10.6317 191.465L12.9449 191.7C12.8904 192.731 12.5911 193.654 12.0468 194.45C11.5025 195.246 10.7677 195.87 9.84245 196.313C8.91716 196.756 7.88303 196.982 6.73096 196.982C5.44283 196.982 4.29076 196.684 3.2657 196.087L3.27477 196.105ZM23.1683 193.274H17.5622L16.2559 196.693H13.7794L18.8957 183.487H21.9709L27.0146 196.693H24.4292L23.1592 193.274H23.1683ZM22.4154 191.257L20.4106 185.875L18.3423 191.257H22.4154ZM28.8561 183.487H32.149L36.1041 194.287L40.0773 183.487H43.3703V196.693H40.9573L41.0117 187.042L37.5827 196.693H34.6073L31.1965 187.042L31.2509 196.693H28.8561V183.487ZM46.2822 183.487H51.8883C52.741 183.487 53.5211 183.677 54.2015 184.048C54.8909 184.428 55.4261 184.944 55.8162 185.604C56.2063 186.264 56.3968 187.015 56.3968 187.856C56.3968 188.697 56.2063 189.43 55.8162 190.099C55.4261 190.768 54.8909 191.284 54.2015 191.664C53.5121 192.035 52.741 192.225 51.8883 192.225H48.7133V196.693H46.2822V183.487ZM51.6161 190.126C52.3146 190.126 52.8771 189.918 53.3034 189.502C53.7207 189.086 53.9384 188.543 53.9384 187.856C53.9384 187.169 53.7298 186.617 53.3034 186.192C52.8771 185.776 52.3237 185.559 51.6161 185.559H48.7133V190.117H51.6161V190.126ZM58.5739 183.487H61.005V196.693H58.5739V183.487ZM64.0621 183.487H66.8107L73.2514 193.355L73.1969 183.487H75.6281V196.693H72.8432L66.4388 186.825L66.4932 196.693H64.0621V183.487ZM81.2705 196.105C80.2363 195.508 79.4199 194.685 78.8393 193.636C78.2588 192.586 77.9594 191.402 77.9594 190.081C77.9594 188.76 78.2497 187.576 78.8393 186.526C79.4199 185.477 80.2273 184.654 81.2614 184.057C82.2955 183.46 83.4567 183.162 84.7539 183.162C85.8697 183.162 86.8947 183.361 87.82 183.777C88.7453 184.184 89.4982 184.754 90.0788 185.477C90.6593 186.201 90.9859 187.024 91.0857 187.946L88.7453 188.272C88.6001 187.377 88.1647 186.653 87.4299 186.11C86.6952 185.559 85.8062 185.287 84.7539 185.287C83.9012 185.287 83.1392 185.486 82.486 185.893C81.8329 186.291 81.3249 186.861 80.962 187.585C80.5992 188.308 80.4178 189.149 80.4178 190.09C80.4178 191.031 80.5992 191.872 80.962 192.595C81.3249 193.319 81.842 193.88 82.5042 194.287C83.1664 194.685 83.9284 194.884 84.7811 194.884C85.8878 194.884 86.7859 194.594 87.4753 193.997C88.1647 193.4 88.5366 192.632 88.5729 191.673H83.9737V189.71H90.9043C90.9043 189.773 90.9133 189.918 90.9406 190.135C90.9678 190.361 90.9768 190.587 90.9768 190.832C90.9768 192.035 90.7138 193.102 90.1967 194.034C89.6796 194.965 88.9449 195.689 88.0105 196.204C87.0671 196.72 85.9876 196.982 84.772 196.982C83.4748 196.982 82.3046 196.684 81.2705 196.087V196.105ZM108.167 196.901C107.723 196.901 107.278 196.819 106.825 196.647C106.371 196.476 105.881 196.213 105.364 195.852C104.303 196.611 103.033 197 101.563 197C100.629 197 99.8033 196.846 99.0957 196.557C98.3882 196.259 97.8439 195.842 97.4538 195.309C97.0637 194.775 96.8732 194.142 96.8732 193.437C96.8732 192.831 97.0456 192.252 97.3903 191.709C97.735 191.166 98.2249 190.687 98.8599 190.271C98.2974 189.719 97.8802 189.177 97.5989 188.652C97.3087 188.127 97.1726 187.603 97.1726 187.069C97.1726 186.355 97.354 185.703 97.7169 185.106C98.0797 184.509 98.5787 184.039 99.2046 183.695C99.8305 183.352 100.529 183.18 101.282 183.18C102.035 183.18 102.742 183.343 103.377 183.677C104.003 184.003 104.502 184.455 104.865 185.025C105.228 185.595 105.409 186.219 105.409 186.906C105.409 187.711 105.146 188.426 104.629 189.059C104.112 189.692 103.35 190.208 102.352 190.615L105.291 193.138C105.863 192.27 106.208 191.157 106.326 189.801L108.367 190.009C108.303 190.85 108.14 191.646 107.886 192.387C107.632 193.129 107.287 193.798 106.843 194.395C107.378 194.757 107.913 194.938 108.457 194.938C108.829 194.938 109.183 194.857 109.51 194.703L109.7 196.602C109.301 196.792 108.784 196.892 108.158 196.892L108.167 196.901ZM99.8577 194.567C100.329 194.893 100.974 195.065 101.799 195.065C102.516 195.065 103.169 194.911 103.767 194.603L100.402 191.691L100.166 191.492C99.4949 191.944 99.1502 192.514 99.1502 193.201C99.1502 193.78 99.386 194.242 99.8577 194.567ZM99.9847 185.712C99.6491 186.065 99.4767 186.517 99.4767 187.06C99.4767 187.431 99.5856 187.793 99.8033 188.136C100.021 188.48 100.393 188.887 100.91 189.366L101.028 189.33C102.389 188.878 103.069 188.1 103.069 186.997C103.069 186.463 102.897 186.029 102.561 185.685C102.225 185.342 101.79 185.17 101.255 185.17C100.72 185.17 100.311 185.351 99.9666 185.703L99.9847 185.712ZM124.949 195.309C124.985 195.906 125.076 196.367 125.221 196.684H122.79C122.663 196.43 122.572 196.023 122.536 195.481L122.4 193.636C122.346 193.102 122.201 192.713 121.956 192.469C121.711 192.225 121.33 192.098 120.804 192.098H117.828V196.684H115.397V183.478H121.429C122.291 183.478 123.053 183.668 123.734 184.039C124.414 184.419 124.949 184.935 125.33 185.595C125.711 186.255 125.902 186.997 125.902 187.829C125.902 188.661 125.675 189.348 125.221 189.972C124.768 190.597 124.142 191.076 123.353 191.402C124.223 191.763 124.695 192.424 124.777 193.382L124.949 195.309ZM121.148 190.09C121.82 190.09 122.373 189.882 122.79 189.466C123.207 189.05 123.425 188.507 123.425 187.838C123.425 187.169 123.217 186.599 122.799 186.183C122.382 185.767 121.829 185.559 121.148 185.559H117.819V190.081H121.148V190.09ZM128.242 183.487H137.685V185.568H130.637V189.104H136.851V191.067H130.637V194.621H137.631V196.702H128.242V183.496V183.487ZM142.058 196.412C141.287 196.014 140.688 195.463 140.262 194.748C139.835 194.034 139.618 193.22 139.618 192.279L142.049 192.179C142.049 193.039 142.294 193.717 142.793 194.223C143.282 194.739 143.945 194.992 144.779 194.992C145.523 194.992 146.104 194.829 146.539 194.495C146.974 194.16 147.192 193.717 147.192 193.165C147.192 192.207 146.593 191.61 145.396 191.374L143.917 191.103C142.62 190.886 141.64 190.443 140.987 189.783C140.334 189.122 140.008 188.254 140.008 187.178C140.008 186.391 140.216 185.694 140.624 185.079C141.033 184.473 141.613 183.994 142.357 183.659C143.101 183.325 143.963 183.153 144.933 183.153C145.958 183.153 146.866 183.352 147.646 183.759C148.435 184.157 149.034 184.726 149.469 185.468C149.895 186.21 150.113 187.06 150.113 188.01L147.682 188.109C147.682 187.214 147.428 186.499 146.929 185.966C146.43 185.432 145.759 185.161 144.915 185.161C144.171 185.161 143.582 185.332 143.146 185.667C142.702 186.002 142.484 186.454 142.484 187.006C142.484 187.992 143.083 188.589 144.28 188.788L145.759 189.059C147.056 189.294 148.036 189.737 148.689 190.398C149.342 191.058 149.669 191.917 149.669 192.975C149.669 193.762 149.46 194.468 149.052 195.074C148.644 195.68 148.063 196.15 147.319 196.485C146.575 196.81 145.714 196.982 144.743 196.982C143.772 196.982 142.838 196.783 142.067 196.385L142.058 196.412ZM155.084 196.105C154.05 195.508 153.234 194.685 152.644 193.636C152.045 192.586 151.746 191.402 151.746 190.081C151.746 188.76 152.036 187.63 152.626 186.581C153.206 185.522 154.023 184.69 155.048 184.084C156.073 183.478 157.243 183.171 158.54 183.171C159.838 183.171 160.972 183.469 162.006 184.066C163.04 184.663 163.865 185.486 164.455 186.535C165.054 187.585 165.353 188.769 165.353 190.09C165.353 191.411 165.063 192.541 164.473 193.599C163.893 194.658 163.076 195.481 162.042 196.096C161.008 196.711 159.838 197.009 158.54 197.009C157.243 197.009 156.118 196.711 155.084 196.114V196.105ZM160.781 194.187C161.443 193.789 161.96 193.229 162.332 192.523C162.704 191.809 162.886 191.004 162.886 190.099C162.886 189.195 162.704 188.39 162.332 187.675C161.96 186.961 161.443 186.409 160.781 186.002C160.119 185.604 159.375 185.396 158.54 185.396C157.706 185.396 156.962 185.595 156.3 186.002C155.638 186.409 155.121 186.961 154.749 187.675C154.377 188.39 154.195 189.195 154.195 190.099C154.195 191.004 154.377 191.818 154.749 192.523C155.121 193.229 155.638 193.789 156.3 194.187C156.962 194.594 157.706 194.793 158.54 194.793C159.375 194.793 160.119 194.594 160.781 194.187ZM177.227 195.309C177.264 195.906 177.355 196.367 177.5 196.684H175.069C174.942 196.43 174.851 196.023 174.815 195.481L174.678 193.636C174.624 193.102 174.479 192.713 174.234 192.469C173.989 192.225 173.608 192.098 173.082 192.098H170.106V196.684H167.675V183.478H173.708C174.57 183.478 175.332 183.668 176.012 184.039C176.692 184.419 177.227 184.935 177.608 185.595C177.989 186.255 178.18 186.997 178.18 187.829C178.18 188.661 177.953 189.348 177.5 189.972C177.046 190.597 176.42 191.076 175.631 191.402C176.502 191.763 176.973 192.424 177.055 193.382L177.227 195.309ZM173.436 190.09C174.107 190.09 174.66 189.882 175.078 189.466C175.495 189.05 175.713 188.507 175.713 187.838C175.713 187.169 175.504 186.599 175.087 186.183C174.669 185.767 174.116 185.559 173.436 185.559H170.106V190.081H173.436V190.09ZM183.559 185.568H179.568V183.487H190.009V185.568H186V196.693H183.568V185.568H183.559Z" fill="#EEC202"/>
</g>
</g>
<g clip-path="url(#clip2_22687_848)">
<path d="M146.941 79.2084C144.201 121.029 39.3063 106.593 42.0524 106.593V60.9519H89.0373L75.1692 74.0918L79.2392 78.1759L92.2421 64.2533L91.6719 83.3385H97.4328L96.8167 64.2007L109.866 78.1693L113.936 74.0853L100.015 60.9913L119.087 61.6095V56.4009H74.1271C53.9608 56.4009 43.2583 46.0625 43.2583 30.943C43.2583 -10.4368 138.034 1.6444 138.041 1.6444V47.2858H99.9626L113.883 34.1458L109.813 30.0617L96.7643 44.0304L97.3804 24.8926H91.6195L92.2356 44.0304L79.1868 30.0617L75.1168 34.1458L88.9914 47.2397L69.9654 46.6215V51.8302H113.451H113.503C136.723 51.8302 147.931 64.1218 146.941 79.215V79.2084Z" fill="#EEC202"/>
</g>
<defs>
<clipPath id="clip0_22687_848">
<rect width="190" height="77" fill="white" transform="translate(0 120)"/>
</clipPath>
<clipPath id="clip1_22687_848">
<rect width="190" height="196" fill="white" transform="translate(0 1)"/>
</clipPath>
<clipPath id="clip2_22687_848">
<rect width="105" height="109" fill="white" transform="translate(42)"/>
</clipPath>
</defs>
</svg>
